<mxfile host="app.diagrams.net" modified="2020-11-23T23:04:56.294Z" agent="5.0 (Macintosh; Intel Mac OS X 10_15_7) AppleWebKit/537.36 (KHTML, like Gecko) Chrome/87.0.4280.67 Safari/537.36" etag="XR9fQI7g4itQdFHJ7dLR" version="13.9.9" type="github">
  <diagram id="C5RBs43oDa-KdzZeNtuy" name="Page-1">
    <mxGraphModel dx="596" dy="584" grid="1" gridSize="10" guides="1" tooltips="1" connect="1" arrows="1" fold="1" page="1" pageScale="1" pageWidth="827" pageHeight="1169" math="0" shadow="0">
      <root>
        <mxCell id="WIyWlLk6GJQsqaUBKTNV-0" />
        <mxCell id="WIyWlLk6GJQsqaUBKTNV-1" parent="WIyWlLk6GJQsqaUBKTNV-0" />
        <mxCell id="ioobSqvoQFyh90W7_Rea-0" value="class PhoneNumber" style="rounded=0;whiteSpace=wrap;html=1;" parent="WIyWlLk6GJQsqaUBKTNV-1" vertex="1">
          <mxGeometry x="50" y="40" width="120" height="40" as="geometry" />
        </mxCell>
        <mxCell id="ioobSqvoQFyh90W7_Rea-4" value="" style="edgeStyle=orthogonalEdgeStyle;rounded=0;orthogonalLoop=1;jettySize=auto;html=1;" parent="WIyWlLk6GJQsqaUBKTNV-1" source="ioobSqvoQFyh90W7_Rea-1" target="ioobSqvoQFyh90W7_Rea-2" edge="1">
          <mxGeometry relative="1" as="geometry" />
        </mxCell>
        <mxCell id="ioobSqvoQFyh90W7_Rea-1" value="main ()" style="rounded=1;whiteSpace=wrap;html=1;arcSize=50;" parent="WIyWlLk6GJQsqaUBKTNV-1" vertex="1">
          <mxGeometry x="160" y="140" width="120" height="30" as="geometry" />
        </mxCell>
        <mxCell id="ioobSqvoQFyh90W7_Rea-16" value="" style="edgeStyle=orthogonalEdgeStyle;rounded=0;orthogonalLoop=1;jettySize=auto;html=1;" parent="WIyWlLk6GJQsqaUBKTNV-1" source="ioobSqvoQFyh90W7_Rea-2" target="ioobSqvoQFyh90W7_Rea-15" edge="1">
          <mxGeometry relative="1" as="geometry" />
        </mxCell>
        <mxCell id="ioobSqvoQFyh90W7_Rea-2" value="// declarations&lt;br&gt;string phoneNumber" style="rounded=0;whiteSpace=wrap;html=1;" parent="WIyWlLk6GJQsqaUBKTNV-1" vertex="1">
          <mxGeometry x="135" y="200" width="170" height="70" as="geometry" />
        </mxCell>
        <mxCell id="ioobSqvoQFyh90W7_Rea-19" value="" style="edgeStyle=orthogonalEdgeStyle;rounded=0;orthogonalLoop=1;jettySize=auto;html=1;" parent="WIyWlLk6GJQsqaUBKTNV-1" source="ioobSqvoQFyh90W7_Rea-15" target="ioobSqvoQFyh90W7_Rea-18" edge="1">
          <mxGeometry relative="1" as="geometry" />
        </mxCell>
        <mxCell id="ioobSqvoQFyh90W7_Rea-24" value="" style="edgeStyle=orthogonalEdgeStyle;rounded=0;orthogonalLoop=1;jettySize=auto;html=1;" parent="WIyWlLk6GJQsqaUBKTNV-1" source="ioobSqvoQFyh90W7_Rea-15" target="ioobSqvoQFyh90W7_Rea-23" edge="1">
          <mxGeometry relative="1" as="geometry" />
        </mxCell>
        <mxCell id="ioobSqvoQFyh90W7_Rea-15" value="insertDash()" style="whiteSpace=wrap;html=1;rounded=0;" parent="WIyWlLk6GJQsqaUBKTNV-1" vertex="1">
          <mxGeometry x="137.5" y="342.5" width="165" height="60" as="geometry" />
        </mxCell>
        <mxCell id="ioobSqvoQFyh90W7_Rea-17" value="" style="endArrow=none;html=1;entryX=0.996;entryY=0.09;entryDx=0;entryDy=0;entryPerimeter=0;exitX=0;exitY=0.085;exitDx=0;exitDy=0;exitPerimeter=0;" parent="WIyWlLk6GJQsqaUBKTNV-1" source="ioobSqvoQFyh90W7_Rea-15" target="ioobSqvoQFyh90W7_Rea-15" edge="1">
          <mxGeometry width="50" height="50" relative="1" as="geometry">
            <mxPoint x="140" y="329" as="sourcePoint" />
            <mxPoint x="440" y="290" as="targetPoint" />
            <Array as="points" />
          </mxGeometry>
        </mxCell>
        <mxCell id="ioobSqvoQFyh90W7_Rea-21" value="" style="edgeStyle=orthogonalEdgeStyle;rounded=0;orthogonalLoop=1;jettySize=auto;html=1;" parent="WIyWlLk6GJQsqaUBKTNV-1" source="ioobSqvoQFyh90W7_Rea-18" target="ioobSqvoQFyh90W7_Rea-20" edge="1">
          <mxGeometry relative="1" as="geometry" />
        </mxCell>
        <mxCell id="ioobSqvoQFyh90W7_Rea-18" value="output, &quot;Your formatted phone&lt;br&gt;number is: &quot;, formatNumber" style="shape=parallelogram;perimeter=parallelogramPerimeter;whiteSpace=wrap;html=1;fixedSize=1;rounded=0;" parent="WIyWlLk6GJQsqaUBKTNV-1" vertex="1">
          <mxGeometry x="110" y="460" width="220" height="80" as="geometry" />
        </mxCell>
        <mxCell id="VpoSWJ3LKGBdVLAW8ZYA-6" value="" style="edgeStyle=orthogonalEdgeStyle;rounded=0;orthogonalLoop=1;jettySize=auto;html=1;" edge="1" parent="WIyWlLk6GJQsqaUBKTNV-1" source="ioobSqvoQFyh90W7_Rea-20" target="VpoSWJ3LKGBdVLAW8ZYA-4">
          <mxGeometry relative="1" as="geometry" />
        </mxCell>
        <mxCell id="ioobSqvoQFyh90W7_Rea-20" value="return" style="rounded=1;whiteSpace=wrap;html=1;arcSize=50;" parent="WIyWlLk6GJQsqaUBKTNV-1" vertex="1">
          <mxGeometry x="160" y="570" width="120" height="30" as="geometry" />
        </mxCell>
        <mxCell id="ioobSqvoQFyh90W7_Rea-22" value="endClass" style="rounded=0;whiteSpace=wrap;html=1;" parent="WIyWlLk6GJQsqaUBKTNV-1" vertex="1">
          <mxGeometry x="50" y="670" width="120" height="40" as="geometry" />
        </mxCell>
        <mxCell id="ioobSqvoQFyh90W7_Rea-26" value="" style="edgeStyle=orthogonalEdgeStyle;rounded=0;orthogonalLoop=1;jettySize=auto;html=1;" parent="WIyWlLk6GJQsqaUBKTNV-1" source="ioobSqvoQFyh90W7_Rea-23" target="ioobSqvoQFyh90W7_Rea-25" edge="1">
          <mxGeometry relative="1" as="geometry" />
        </mxCell>
        <mxCell id="ioobSqvoQFyh90W7_Rea-23" value="string insertDash()" style="rounded=1;whiteSpace=wrap;html=1;arcSize=50;" parent="WIyWlLk6GJQsqaUBKTNV-1" vertex="1">
          <mxGeometry x="460" y="356.25" width="120" height="32.5" as="geometry" />
        </mxCell>
        <mxCell id="ioobSqvoQFyh90W7_Rea-28" value="" style="edgeStyle=orthogonalEdgeStyle;rounded=0;orthogonalLoop=1;jettySize=auto;html=1;" parent="WIyWlLk6GJQsqaUBKTNV-1" source="ioobSqvoQFyh90W7_Rea-25" target="ioobSqvoQFyh90W7_Rea-27" edge="1">
          <mxGeometry relative="1" as="geometry" />
        </mxCell>
        <mxCell id="ioobSqvoQFyh90W7_Rea-25" value="// declarations&lt;br&gt;formatNumber" style="rounded=0;whiteSpace=wrap;html=1;" parent="WIyWlLk6GJQsqaUBKTNV-1" vertex="1">
          <mxGeometry x="457.5" y="420" width="125" height="60" as="geometry" />
        </mxCell>
        <mxCell id="ioobSqvoQFyh90W7_Rea-30" value="" style="edgeStyle=orthogonalEdgeStyle;rounded=0;orthogonalLoop=1;jettySize=auto;html=1;entryX=0.5;entryY=0;entryDx=0;entryDy=0;" parent="WIyWlLk6GJQsqaUBKTNV-1" source="ioobSqvoQFyh90W7_Rea-27" target="ioobSqvoQFyh90W7_Rea-31" edge="1">
          <mxGeometry relative="1" as="geometry">
            <mxPoint x="520.0000000000005" y="610" as="targetPoint" />
          </mxGeometry>
        </mxCell>
        <mxCell id="ioobSqvoQFyh90W7_Rea-27" value="String.Format (&quot;{0: ###-###-####}&quot;, phoneNumber) = formatNumber" style="shape=parallelogram;perimeter=parallelogramPerimeter;whiteSpace=wrap;html=1;fixedSize=1;rounded=0;" parent="WIyWlLk6GJQsqaUBKTNV-1" vertex="1">
          <mxGeometry x="400" y="520" width="240" height="80" as="geometry" />
        </mxCell>
        <mxCell id="ioobSqvoQFyh90W7_Rea-33" style="edgeStyle=orthogonalEdgeStyle;rounded=0;orthogonalLoop=1;jettySize=auto;html=1;exitX=0.5;exitY=1;exitDx=0;exitDy=0;entryX=1;entryY=0.5;entryDx=0;entryDy=0;" parent="WIyWlLk6GJQsqaUBKTNV-1" source="ioobSqvoQFyh90W7_Rea-31" target="ioobSqvoQFyh90W7_Rea-18" edge="1">
          <mxGeometry relative="1" as="geometry">
            <mxPoint x="80" y="520" as="targetPoint" />
            <Array as="points">
              <mxPoint x="520" y="753" />
              <mxPoint x="350" y="753" />
              <mxPoint x="350" y="500" />
            </Array>
          </mxGeometry>
        </mxCell>
        <mxCell id="ioobSqvoQFyh90W7_Rea-31" value="return &lt;span style=&quot;background-color: rgb(51 , 153 , 255)&quot;&gt;formatNumber&lt;/span&gt;" style="rounded=1;whiteSpace=wrap;html=1;arcSize=50;" parent="WIyWlLk6GJQsqaUBKTNV-1" vertex="1">
          <mxGeometry x="460" y="630" width="120" height="32.5" as="geometry" />
        </mxCell>
        <mxCell id="VpoSWJ3LKGBdVLAW8ZYA-3" value="" style="edgeStyle=orthogonalEdgeStyle;rounded=0;orthogonalLoop=1;jettySize=auto;html=1;" edge="1" parent="WIyWlLk6GJQsqaUBKTNV-1" source="VpoSWJ3LKGBdVLAW8ZYA-0">
          <mxGeometry relative="1" as="geometry">
            <mxPoint x="220" y="140" as="targetPoint" />
          </mxGeometry>
        </mxCell>
        <mxCell id="VpoSWJ3LKGBdVLAW8ZYA-0" value="start" style="rounded=1;whiteSpace=wrap;html=1;arcSize=50;" vertex="1" parent="WIyWlLk6GJQsqaUBKTNV-1">
          <mxGeometry x="160" y="90" width="120" height="30" as="geometry" />
        </mxCell>
        <mxCell id="VpoSWJ3LKGBdVLAW8ZYA-4" value="stop" style="rounded=1;whiteSpace=wrap;html=1;arcSize=50;" vertex="1" parent="WIyWlLk6GJQsqaUBKTNV-1">
          <mxGeometry x="160" y="630" width="120" height="30" as="geometry" />
        </mxCell>
      </root>
    </mxGraphModel>
  </diagram>
</mxfile>
